<?xml version="1.0" encoding="utf8" standalone="no"?>
<svg viewBox="0 0 52.963348 52.963348" xmlns="http://www.w3.org/2000/svg">
<defs>
<linearGradient gradientUnits="userSpaceOnUse" id="linearGradient2496" x1="314.56537" x2="332.02466" y1="369.97995" y2="387.43924">
<stop offset="0" stop-color="#1c97e1"/>
<stop offset="1" stop-color="#006798"/>
</linearGradient>
<linearGradient gradientTransform="matrix(1.9519,0,0,1.84182,-341.0404,-488.5229)" gradientUnits="userSpaceOnUse" id="linearGradient2498" x1="302.73621" x2="311.27377" y1="377.9527" y2="390.78342">
<stop offset="0" stop-color="#fff"/>
<stop offset="1" stop-color="#fff" stop-opacity="0"/>
</linearGradient>
<linearGradient gradientTransform="matrix(.705519,0,0,.956752,-290.5796,-78.4396)" gradientUnits="userSpaceOnUse" id="linearGradient2500" x1="786.64636" x2="818.39136" y1="302.44009" y2="338.76443">
<stop offset="0" stop-color="#fff" stop-opacity=".72656"/>
<stop offset="1" stop-color="#fff"/>
</linearGradient>
</defs>
<g transform="translate(-249.78054,-201.81625)">
<path d="m339.53775,378.05789a13.96668,13.96668 0 1,1 -27.93335,0 13.96668,13.96668 0 1,1 27.93335,0z" fill="#166496" transform="matrix(1.896061,0,0,1.896061,-341.0404,-488.5229)"/>
<path d="m339.53775,378.05789a13.96668,13.96668 0 1,1 -27.93335,0 13.96668,13.96668 0 1,1 27.93335,0z" fill="url(#linearGradient2496)" stroke="#fff" stroke-width=".68595" transform="matrix(1.731185,0,0,1.731185,-287.3619,-426.1907)"/>
<path d="m276.24601,204.13173c-13.34675,0-24.1748,10.82803-24.17478,24.17478 0,6.41257 2.61694,12.14291 6.69547,16.47203 2.11885-17.50049 16.88952-31.10725 34.95862-31.10725 .48721,0 .93961.09896 1.42205.1185-4.42143-5.75069-11.09207-9.65806-18.90136-9.65806z" fill="url(#linearGradient2498)"/>
<path d="m274.29085,240.84024c-1.89424,0-3.37891,1.48467-3.37891,3.27651 0,1.84304 1.48467,3.32771 3.32771,3.32771 1.79184,0 3.27651-1.48467 3.27651-3.32771 0-1.79184-1.48467-3.27651-3.22531-3.27651m1.1263-2.96934c-.0512-4.60759 1.02391-6.34824 4.5052-7.67932l1.68945-.61435c2.35499-.81913 3.89086-1.84304 4.96596-3.12292 1.22869-1.63826 1.94543-3.68608 1.94543-5.6827 0-3.02054-1.53586-5.83629-4.04444-7.32096-2.3038-1.38228-5.32434-2.20141-8.24248-2.20141-3.37889,0-7.06498,1.07511-9.11279,2.66217-2.20141,1.74064-3.53249,3.99325-3.53249,6.04107 0,2.15021 1.33108,3.73727 3.17412,3.73727 1.48467,0 2.76456-1.1775 2.76456-2.45738 0-.51196-.1024-.81913-.61435-1.89424-.35837-.66554-.46076-1.0751-.46076-1.63825 0-2.45739 3.22532-4.40282 7.26976-4.40282 4.65878,0 7.26976,2.55978 7.26976,7.01379 0,2.81575-1.22869,5.11955-3.53249,6.70661l-2.91814,1.99662c-2.76456,1.84304-3.53249,3.32771-3.53249,6.60422 0,.66554.05119,1.22869.10239,2.2526h2.3038" fill="url(#linearGradient2500)"/>
</g>
</svg>
